<svg width="512" height="256" viewBox="0 0 512 256" fill="none" xmlns="http://www.w3.org/2000/svg">
<rect width="512" height="256" fill="#282828"/>
<path d="M47.6619 98.6172C47.6619 94.3505 48.4619 90.8505 50.0619 88.1172C51.7286 85.3172 53.7952 83.1172 56.2619 81.5172C58.7952 79.8505 61.5619 78.7172 64.5619 78.1172C67.6286 77.4505 70.5619 77.1172 73.3619 77.1172C74.1619 77.1172 75.1619 77.1505 76.3619 77.2172C77.6286 77.2838 78.9286 77.3838 80.2619 77.5172C81.6619 77.6505 83.0619 77.8505 84.4619 78.1172C85.9286 78.3172 87.2952 78.6172 88.5619 79.0172C88.6953 80.7505 88.7953 82.3839 88.8619 83.9172C88.9286 85.3839 88.9619 87.0839 88.9619 89.0172C88.9619 90.9505 88.9286 92.8172 88.8619 94.6172C88.7953 96.3505 88.6953 98.0172 88.5619 99.6172C88.0286 99.5505 87.3286 99.4505 86.4619 99.3172C85.6619 99.1839 84.7952 99.0839 83.8619 99.0172C82.9952 98.9505 82.0953 98.8838 81.1619 98.8172C80.2952 98.7505 79.4619 98.7172 78.6619 98.7172C75.4619 98.7172 73.1286 99.2172 71.6619 100.217C70.1952 101.217 69.4619 102.584 69.4619 104.317C69.4619 105.317 69.6952 106.284 70.1619 107.217C70.6286 108.084 71.2286 108.917 71.9619 109.717C72.7619 110.517 73.6286 111.284 74.5619 112.017C75.5619 112.751 76.5619 113.451 77.5619 114.117C79.1619 115.251 80.7619 116.517 82.3619 117.917C84.0286 119.251 85.5286 120.884 86.8619 122.817C88.1952 124.684 89.2952 126.884 90.1619 129.417C91.0286 131.884 91.4619 134.751 91.4619 138.017C91.4619 142.284 90.7286 145.884 89.2619 148.817C87.7952 151.751 85.8952 154.151 83.5619 156.017C81.2952 157.817 78.7286 159.151 75.8619 160.017C73.0619 160.817 70.2619 161.217 67.4619 161.217C66.1952 161.217 64.6286 161.117 62.7619 160.917C60.9619 160.784 59.1286 160.551 57.2619 160.217C55.3952 159.951 53.6286 159.617 51.9619 159.217C50.2952 158.751 48.9619 158.217 47.9619 157.617C47.6952 156.417 47.4619 155.184 47.2619 153.917C47.1286 152.651 47.0619 151.251 47.0619 149.717C47.0619 148.651 47.0952 147.351 47.1619 145.817C47.2952 144.284 47.4286 142.717 47.5619 141.117C47.6952 139.517 47.8286 137.984 47.9619 136.517C48.1619 135.051 48.3286 133.817 48.4619 132.817C49.1952 133.217 50.2619 133.684 51.6619 134.217C53.0619 134.684 54.5619 135.151 56.1619 135.617C57.8286 136.084 59.4952 136.484 61.1619 136.817C62.8286 137.151 64.2952 137.317 65.5619 137.317C67.6952 137.317 69.2952 136.884 70.3619 136.017C71.4286 135.084 71.9619 133.851 71.9619 132.317C71.9619 130.651 71.3619 129.184 70.1619 127.917C68.9619 126.584 67.4619 125.284 65.6619 124.017C63.8619 122.751 61.8952 121.417 59.7619 120.017C57.6952 118.551 55.7619 116.851 53.9619 114.917C52.1619 112.984 50.6619 110.717 49.4619 108.117C48.2619 105.451 47.6619 102.284 47.6619 98.6172Z" fill="url(#paint0_linear_2629_18400)"/>
<path d="M252.985 79.4734C252.785 83.4734 252.619 87.0068 252.485 90.0734C252.419 93.1401 252.352 96.0734 252.285 98.8734C252.219 101.673 252.152 104.573 252.085 107.573C252.085 110.507 252.085 113.873 252.085 117.673H252.485L270.285 79.3734H288.885L269.285 119.273L290.085 161.273H271.385L252.485 121.673H252.085C252.085 124.14 252.085 126.94 252.085 130.073C252.085 133.207 252.085 136.507 252.085 139.973C252.152 143.373 252.185 146.907 252.185 150.573C252.252 154.173 252.285 157.74 252.285 161.273H234.685C234.752 158.34 234.819 155.307 234.885 152.173C234.952 148.973 235.019 145.54 235.085 141.873C235.152 138.14 235.185 134.14 235.185 129.873C235.185 125.54 235.185 120.773 235.185 115.573C235.185 111.04 235.185 107.207 235.185 104.073C235.185 100.873 235.152 97.9734 235.085 95.3734C235.085 92.7734 235.085 90.2734 235.085 87.8734C235.085 85.4068 235.085 82.6068 235.085 79.4734H252.985ZM343.47 79.3734C343.604 89.1068 343.804 97.5401 344.07 104.673C344.337 111.74 344.47 117.773 344.47 122.773C344.47 126.04 344.37 129.307 344.17 132.573C343.97 135.773 343.537 138.84 342.87 141.773C342.204 144.707 341.237 147.44 339.97 149.973C338.77 152.44 337.137 154.607 335.07 156.473C333.07 158.34 330.57 159.807 327.57 160.873C324.57 161.873 321.004 162.373 316.87 162.373C312.604 162.373 308.937 161.84 305.87 160.773C302.87 159.64 300.337 158.14 298.27 156.273C296.204 154.407 294.537 152.207 293.27 149.673C292.07 147.073 291.137 144.307 290.47 141.373C289.804 138.44 289.37 135.407 289.17 132.273C288.97 129.14 288.87 126.007 288.87 122.873C288.87 120.407 288.904 117.773 288.97 114.973C289.037 112.173 289.137 109.04 289.27 105.573C289.404 102.107 289.537 98.2401 289.67 93.9734C289.87 89.7068 290.07 84.8734 290.27 79.4734H307.87C307.67 85.4734 307.504 90.5734 307.37 94.7734C307.237 98.9068 307.104 102.373 306.97 105.173C306.904 107.973 306.837 110.207 306.77 111.873C306.77 113.473 306.737 114.707 306.67 115.573C306.67 116.44 306.67 117.073 306.67 117.473C306.67 117.807 306.67 118.073 306.67 118.273C306.67 124.74 307.404 129.607 308.87 132.873C310.337 136.14 312.97 137.773 316.77 137.773C320.637 137.773 323.237 136.007 324.57 132.473C325.97 128.94 326.67 123.573 326.67 116.373C326.67 116.04 326.67 115.673 326.67 115.273C326.67 114.807 326.637 114.107 326.57 113.173C326.57 112.24 326.537 111.007 326.47 109.473C326.47 107.873 326.404 105.773 326.27 103.173C326.204 100.507 326.104 97.2734 325.97 93.4734C325.837 89.6068 325.67 84.9401 325.47 79.4734L343.47 79.3734ZM349.238 161.273C349.438 154.94 349.572 148.64 349.638 142.373C349.705 136.04 349.738 130.04 349.738 124.373C349.738 116.307 349.672 108.64 349.538 101.373C349.472 94.1068 349.372 86.8068 349.238 79.4734C352.505 79.1401 355.772 78.8734 359.038 78.6734C362.372 78.4068 365.738 78.2734 369.138 78.2734C374.005 78.2734 378.572 78.6401 382.838 79.3734C387.105 80.0401 390.805 81.3401 393.938 83.2734C397.072 85.1401 399.538 87.7401 401.338 91.0734C403.205 94.4068 404.138 98.7068 404.138 103.973C404.138 110.507 402.772 115.64 400.038 119.373C397.372 123.107 393.738 125.907 389.138 127.773L405.438 161.273H387.638L374.338 130.773C371.605 130.973 368.772 131.073 365.838 131.073C365.838 136.207 365.872 141.24 365.938 146.173C366.005 151.107 366.205 156.14 366.538 161.273H349.238ZM365.838 115.873C367.905 116.073 369.805 116.173 371.538 116.173C376.072 116.173 379.272 115.34 381.138 113.673C383.072 111.94 384.038 109.373 384.038 105.973C384.038 103.907 383.738 102.24 383.138 100.973C382.605 99.7068 381.838 98.7068 380.838 97.9734C379.905 97.2401 378.772 96.7401 377.438 96.4734C376.172 96.2068 374.805 96.0734 373.338 96.0734C372.272 96.0734 371.072 96.1401 369.738 96.2734C368.472 96.3401 367.172 96.4734 365.838 96.6734V115.873ZM405.025 161.273L419.825 79.4734H444.525L459.225 161.273H442.325L439.825 144.873H424.425L422.025 161.273H405.025ZM427.125 126.973H437.125L432.125 93.9734L427.125 126.973Z" fill="url(#paint1_linear_2629_18400)"/>
<path fill-rule="evenodd" clip-rule="evenodd" d="M173.653 151.603V188.382C173.653 192.524 170.295 195.882 166.153 195.882H114.245C110.102 195.882 106.745 192.524 106.745 188.382V81.2031C106.745 77.061 110.102 73.7031 114.245 73.7031H166.153C167.374 73.7031 168.526 73.9947 169.545 74.5119V69.1687C168.466 68.8654 167.329 68.7031 166.153 68.7031H114.245C107.341 68.7031 101.745 74.2996 101.745 81.2031V188.382C101.745 195.286 107.341 200.882 114.245 200.882H166.153C173.057 200.882 178.653 195.286 178.653 188.382V151.603H173.653Z" fill="url(#paint2_linear_2629_18400)"/>
<rect x="133.138" y="77.2891" width="16.3837" height="5.08105" fill="url(#paint3_linear_2629_18400)"/>
<circle cx="141.059" cy="184.546" r="7.19015" fill="url(#paint4_linear_2629_18400)"/>
<path fill-rule="evenodd" clip-rule="evenodd" d="M197.664 145.514C196.823 140.349 196.025 134.13 195.294 127.605H222.129V145.514H197.664ZM167.649 145.514C168.836 139.995 170.18 133.768 171.512 127.605H179.411C180.928 133.916 182.383 140.198 183.511 145.514H167.649ZM150.274 145.514C150.961 140.172 151.756 133.993 152.579 127.605H132.637V145.514H150.274Z" fill="url(#paint5_linear_2629_18400)"/>
<path fill-rule="evenodd" clip-rule="evenodd" d="M171.465 79.8125L177.932 106.077L178.529 108.49C182.871 125.634 189.542 152.911 189.542 158.679C189.542 159.341 189.479 160.02 189.413 160.726C189.219 162.82 189.003 165.151 190.34 167.954C191.556 170.503 196.292 175.4 196.292 175.4C196.292 175.4 198.03 171.113 198.7 168.124C199.449 164.789 198.712 161.717 196.812 157.927C191.789 147.903 187.263 79.8125 187.263 79.8125H171.465ZM168.258 79.8125L173.321 101.5C169.538 118.935 160.169 162.165 159.9 163.946C159.601 165.915 154.026 174.712 154.026 174.712C154.026 174.712 151.741 164.191 151.932 162.573C152.095 161.187 162.583 79.8125 162.583 79.8125H168.258Z" fill="url(#paint6_linear_2629_18400)"/>
<defs>
<linearGradient id="paint0_linear_2629_18400" x1="80.7109" y1="55.1172" x2="80.7109" y2="176.327" gradientUnits="userSpaceOnUse">
<stop stop-color="#7C7C7C"/>
<stop offset="1" stop-color="white" stop-opacity="0.8"/>
</linearGradient>
<linearGradient id="paint1_linear_2629_18400" x1="349.062" y1="56.2734" x2="349.062" y2="177.483" gradientUnits="userSpaceOnUse">
<stop stop-color="#7C7C7C"/>
<stop offset="1" stop-color="white" stop-opacity="0.8"/>
</linearGradient>
<linearGradient id="paint2_linear_2629_18400" x1="140.199" y1="68.7031" x2="140.199" y2="200.882" gradientUnits="userSpaceOnUse">
<stop stop-color="#7C7C7C"/>
<stop offset="1" stop-color="white" stop-opacity="0.8"/>
</linearGradient>
<linearGradient id="paint3_linear_2629_18400" x1="141.33" y1="77.2891" x2="141.33" y2="82.3701" gradientUnits="userSpaceOnUse">
<stop stop-color="#7C7C7C"/>
<stop offset="1" stop-color="white" stop-opacity="0.8"/>
</linearGradient>
<linearGradient id="paint4_linear_2629_18400" x1="141.059" y1="177.355" x2="141.059" y2="191.736" gradientUnits="userSpaceOnUse">
<stop stop-color="#7C7C7C"/>
<stop offset="1" stop-color="white" stop-opacity="0.8"/>
</linearGradient>
<linearGradient id="paint5_linear_2629_18400" x1="177.383" y1="127.605" x2="177.383" y2="145.514" gradientUnits="userSpaceOnUse">
<stop stop-color="#7C7C7C"/>
<stop offset="1" stop-color="white" stop-opacity="0.8"/>
</linearGradient>
<linearGradient id="paint6_linear_2629_18400" x1="175.455" y1="79.8125" x2="175.455" y2="175.4" gradientUnits="userSpaceOnUse">
<stop stop-color="#7C7C7C"/>
<stop offset="1" stop-color="white" stop-opacity="0.8"/>
</linearGradient>
</defs>
</svg>
